<?xml version="1.0" encoding="utf-8"?>
<!-- Generator: Adobe Illustrator 22.0.1, SVG Export Plug-In . SVG Version: 6.00 Build 0)  -->
<svg version="1.1" id="Layer_1" xmlns="http://www.w3.org/2000/svg" xmlns:xlink="http://www.w3.org/1999/xlink" x="0px" y="0px"
	 viewBox="0 0 800 254" style="enable-background:new 0 0 800 254;" xml:space="preserve">
<style type="text/css">
	.st0{fill:#DBDADA;}
	.st1{fill:#70C7AF;}
</style>
<g>
	<path class="st0" d="M748.7,227.6c-4.2,3.2-9.1,1.7-13.7,1.5c-1.7-0.1-1.2-2.2-1.1-3.5c0.2-8.1,1.1-16.3,0.6-24.4
		c-0.6-10.3-0.7-20.6-0.4-30.9c0.1-2.9-0.8-6.2,2.2-8.6c0.4-0.3,0.3-1.5,0.1-2.2c-3-9.9-2.4-20.1-2.4-30.2c0-2.9-0.8-5.3-1.9-7.9
		c-10.7-25.6-28.7-46.4-45.4-68c-1.6-2.1-3.3-4.1-5.1-6c-0.9-0.9-1.8-2.7-3.2-2.2c-1.6,0.5-0.8,2.4-0.8,3.7c-0.1,3.8-0.1,7.7,0,11.5
		c0.2,7.6,0.1,15.1-1.8,22.4c-1.5,5.6,1.8,10.5,1.6,15.8c-0.3,14.9-0.4,29.8-0.7,44.8c-0.4,24,3.7,47.8,2.6,71.8
		c-0.1,1.8,0.3,3.7,0,5.5c-0.4,2.7,1.5,6.8-1.6,8c-4.3,1.6-9.1,1-13.6-0.4c-1.2-0.3-1-1.4-1-2.3c0.9-20.9,1.8-41.7,2.8-62.6
		c0.1-1.2,0.3-2.5,0.6-3.6c1.4-4.9,1.5-9.4-0.1-14.6c-2-6.5-0.6-13.7-0.4-20.6c0.9-29.1,0.9-58.1-2-87.1c0-0.3-0.1-0.6-0.1-0.9
		c-0.8-10.1,1.5-12.8,11.6-13.8c1.6-0.2,2.2,0.5,3,1.6c9.7,13.7,20,26.8,29.2,40.8c7.2,10.9,15.7,21.1,23.7,31.6
		c0.4,0.6,0.9,1.4,1.8,0.9c0.4-0.3,0.8-1,0.8-1.5c0.1-1.2,0.1-2.5,0-3.7c-0.3-13.8-1.2-27.7-0.8-41.5c0.2-7.4-0.8-14.7-0.4-22.1
		c0.1-2.5,0.7-3.4,3.4-3.6c11.5-0.6,12-0.3,11.5,11c-1,22.9-2.2,45.8-3.3,68.6c-0.7,14,0.8,28,1,42c0.2,14.3,0.8,28.6,1.7,42.9
		c0.6,9.5-1.1,19,0.8,28.5c0.2,1-0.2,2.2,0.9,2.9C748.7,223.3,748.7,225.5,748.7,227.6z"/>
	<path class="st1" d="M272.4,64.5c-5.6,0.4-6.4-3.6-7.9-7.3c-2.9-7.3-5.9-14.5-9.1-21.7c-1.1-2.5-0.7-3.6,1.7-5.1
		c6.7-4.3,14-6,21.7-7c2.2-0.3,3.2,0.2,3.6,2.3c3.2,16.6,11.6,31.6,15.3,48.2c1.7,7.7,5.3,14.9,8.3,23.1c2.4-6.1,4.6-11.7,6.8-17.2
		c4.1-10.7,7-21.8,12.1-32.2c1.8-3.6,1.9-9,2.6-13.6c0.1-0.6,0.1-1.3,0.3-1.8c1.1-2.6,0.1-6.8,2.9-7.7c3.5-1.1,7.7-1.4,11.4,0
		c4.7,1.8,9.3,4.1,13.9,6.1c2.1,0.9,2.3,2,1.3,3.9c-3.1,6.2-6.2,12.4-9.2,18.6c-0.6,1.2-1.4,2-2.5,2.6c-2,1-2.6,2.5-1.3,4.5
		c1.3,1.9,0.4,3.5-0.4,5.2c-7.6,17.5-15.1,35-22.8,52.4c-1.1,2.6-1.1,4.9-0.2,7.5c5.9,17.4,11.1,35.2,17.8,52.3
		c3.3,8.3,7.4,16.4,10.9,24.8c1,2.3,2.3,4.6-2.3,7.2c7.5-0.9,7.8,2.9,8.4,6.9c1.3,8.3,1.5,8.2-6.3,10.6c-4.5,1.4-9.2,2.6-13.6,4.2
		c-2.6,0.9-3.6,0.1-5.1-2c-5.1-7.3-6-16-8.6-24.1c-5.2-16.4-10.3-32.7-15.8-49c-0.5-1.4-1-2.7-1.9-5.3c-2.7,9.6-4.8,18-7.4,26.3
		c-5.2,16.4-9.1,33.1-15.4,49.2c-1.3,3.3-2.7,4.6-6.7,3.9c-6.9-1.3-13.3-3.9-19.9-5.7c-2.4-0.7-2.3-1.8-1.5-3.7
		c3.1-7.9,4.9-16.5,9.6-23.3c3-4.4,3-8.7,4.5-12.9c2.3-6.2,4.4-12.5,7.3-18.4c6.7-14,9.9-29.3,15.9-43.5c1-2.4,0.7-4.3-0.3-6.6
		c-6.7-14.7-13.1-29.5-20-44C268.9,68.7,271.2,67.3,272.4,64.5z"/>
	<path class="st1" d="M413.1,21.8c4.2-0.1,7.2,0.7,9.7,3.2c1.3,1.3,2.9,2.3,4.3,3.5c9.5,7.7,9.8,8,1.3,17.5
		c-8.9,9.8-16.1,20.9-25,30.6c-4.3,4.7-6.8,10.9-11.1,15.8c-1.6,1.8,0,2.7,0.9,3.9c12.1,15.9,28,27.8,42.8,40.9
		c2.2,2,3.7,3.7,3.5,6.8c-0.2,3.2,0.2,6.4,0.5,9.7c0.4,4.7-0.6,8.7-3.1,13c-8.4,14.8-20.9,26.6-30.4,40.6c-2.5,3.7-5.1,7.4-6.2,11.7
		c-1.3,4.8-4.5,8.3-7.4,12.1c-1.4,1.8-2.8,1.9-4.7,0.7c-6-3.8-12-7.5-18-11.2c-0.9-0.5-2.2-1-1.6-2.4c1.5-3.3,1.9-7.4,4.7-9.9
		c6.2-5.4,9.9-12.5,14.1-19.2c0.6-0.9,0.9-2.4,1.7-2.7c9.3-3.7,10.3-13.9,15.9-20.5c3-3.5,4.9-7.8,7.7-11.5c1.8-2.4,1.2-3.8-0.5-5.9
		c-3.8-4.9-8.6-8.4-13.6-12c-7.7-5.8-14.4-12.9-21.6-19.5c-1.5-1.4-2.7-3.1-4.3-4.1c-9.2-5.7-8.1-14.9-8.2-23.7c0-1.7,1.1-2.8,2-4.1
		c6.9-10.2,14-20.2,22.6-29.1c3.5-3.6,2.8-8.9,6.6-12.3c2.3-2,3.7-4.9,6.5-6.3c1.5-0.7,1.9-1.9,2.2-3.6c0.8-4.3,3.9-7.5,6.1-11.2
		C411.3,21.1,412.8,21.8,413.1,21.8z"/>
	<path class="st1" d="M491.6,21.8c4.2-0.1,7.2,0.7,9.7,3.2c1.3,1.3,2.9,2.3,4.3,3.5c9.5,7.7,9.8,8,1.3,17.5
		c-8.9,9.8-16.1,20.9-25,30.6c-4.3,4.7-6.8,10.9-11.1,15.8c-1.6,1.8,0,2.7,0.9,3.9c12.1,15.9,28,27.8,42.8,40.9
		c2.2,2,3.7,3.7,3.5,6.8c-0.2,3.2,0.2,6.4,0.5,9.7c0.4,4.7-0.6,8.7-3.1,13c-8.4,14.8-20.9,26.6-30.4,40.6c-2.5,3.7-5.1,7.4-6.2,11.7
		c-1.3,4.8-4.5,8.3-7.4,12.1c-1.4,1.8-2.8,1.9-4.7,0.7c-6-3.8-12-7.5-18-11.2c-0.9-0.5-2.2-1-1.6-2.4c1.5-3.3,1.9-7.4,4.7-9.9
		c6.2-5.4,9.9-12.5,14.1-19.2c0.6-0.9,0.9-2.4,1.7-2.7c9.3-3.7,10.3-13.9,15.9-20.5c3-3.5,4.9-7.8,7.7-11.5c1.8-2.4,1.2-3.8-0.5-5.9
		c-3.8-4.9-8.6-8.4-13.6-12c-7.7-5.8-14.4-12.9-21.6-19.5c-1.5-1.4-2.7-3.1-4.3-4.1c-9.2-5.7-8.1-14.9-8.2-23.7c0-1.7,1.1-2.8,2-4.1
		c6.9-10.2,14-20.2,22.6-29.1c3.5-3.6,2.8-8.9,6.6-12.3c2.3-2,3.7-4.9,6.5-6.3c1.5-0.7,1.9-1.9,2.2-3.6c0.8-4.3,3.9-7.5,6.1-11.2
		C489.8,21.1,491.3,21.8,491.6,21.8z"/>
	<path class="st0" d="M239.6,124c0.2,4.9-1.1,9.2-3.2,13.4c-14.3,29.1-28.4,58.3-39.6,88.8c-0.7,2-1.5,4.8-3.8,4.7
		c-3.6,0-7.7,0.2-10.7-2c-1.3-0.9-0.8-4.1-1.6-6c-2-5-4.2-9.9-6.5-14.8c-2.8-5.8-5.2-11.8-5.5-18.4c0-1,0.2-2.7-1-2.7
		c-4.6,0.2-4.7-3.7-5.9-6.4c-6.6-14.7-13.1-29.5-19.6-44.3c-0.8-1.8-1.6-3.7-2.1-5.6c-1-4.5-1.1-8.4,1.5-13
		c4.8-8.5,8.2-17.9,12.1-26.9c2.2-5.1,5.9-9.6,7.7-14.4c2.6-6.9,5.5-13.6,8.3-20.4c4-9.8,8.5-19.4,12.5-29.2c1.2-3,3.5-2.5,5.7-2.8
		c8.1-1.1,8.1-1,10.8,6.6c4.7,13.2,11.2,25.6,16.5,38.6c1.2,3,2.3,6,3.2,9.1c1,3.2,1.1,6.8,5.1,8.1c0.6,0.2,1,1.5,1.3,2.3
		c3,9.5,8.1,17.9,13,26.4C239.3,118.2,240.3,121,239.6,124z M188.8,41c-5.1,12.8-12.2,24.3-18.2,36.3c-3.3,6.5-7.9,12.2-9.4,19.8
		c-1.4,7.1-5.4,13.7-8.2,20.5c-1.2,2.8-1.7,5.6-0.5,8.5c5.8,13.7,10.5,27.9,17.1,41.3c5.9,12,11.7,24,16.4,36.6c1,2.7,1.1,7.4,4,7.5
		c2.9,0,3.1-4.7,4.5-7.3c6.1-10.9,7.5-24.1,17.1-33.2c0.5-0.5,0.5-1.4,0.8-2.1c4.3-12.7,8.3-25.4,12.9-37.9c2.2-5.9,0.3-11.1-2-15.8
		c-2.4-4.9-5.4-9.6-7.6-14.6c-4.1-9.3-8.5-18.4-12-27.9c-3.4-9.4-7.9-18.2-12-27.3C191.1,43.8,190.8,42.2,188.8,41z"/>
	<path class="st0" d="M633.1,123.7c0.2,5.1-1.1,9.4-3.2,13.7c-14.3,29.1-28.4,58.3-39.6,88.8c-0.8,2.1-1.6,5.1-4.2,4.9
		c-3.5-0.3-7.1-0.2-10.3-1.8c-0.3-0.2-0.5-0.8-0.6-1.2c-0.8-8-5.4-14.6-8.5-21.8c-2.3-5.3-4-10.6-4.5-16.3c-0.1-1.1,0.3-3-1.4-2.9
		c-3.5,0.3-3.9-2.4-4.8-4.5c-6.8-15.3-13.5-30.7-20.2-46c-0.8-1.8-1.7-3.7-2.1-5.6c-1-4.5-1.2-8.4,1.4-13.1
		c5.3-9.7,9.1-20.2,13.6-30.3c1.5-3.5,2.7-7.2,5.8-9.8c2.2-1.8,1.1-4.9,2.2-7.3c6.5-14.4,12.8-28.9,19-43.5c0.9-2.1,2.2-2.5,4.2-2.8
		c9.6-1.1,9.2-1,12.9,8.1c5,12.4,10.5,24.6,15.9,36.8c1.4,3.1,2.4,6.3,3.3,9.6c0.9,3,1,6.5,4.9,7.7c0.6,0.2,1.1,1.5,1.3,2.3
		c3,9.5,8.1,17.9,12.9,26.5C632.6,118.1,634,120.8,633.1,123.7z M582.2,41.1c-4.9,12.6-11.9,23.9-17.8,35.6
		c-3.4,6.8-8.2,12.7-9.8,20.6c-1.4,7.1-5.4,13.7-8.2,20.5c-1.2,2.8-1.5,5.6-0.3,8.5c5.9,14,10.8,28.4,17.5,42.1
		c6.3,12.6,12.3,25.4,17.1,38.8c0.6,1.7,0.7,4.3,2.6,4.5c2.4,0.2,2.4-2.7,3.4-4.3c0.5-0.9,0.8-2,1.3-2.9c6-11.1,7.8-24.3,17.3-33.6
		c0.4-0.4,0.4-1.1,0.6-1.7c4.3-12.8,8.4-25.7,13-38.4c2.1-5.8,0.2-11.1-2.2-15.8c-2.4-4.7-5.2-9.4-7.4-14.2
		c-2.8-6.2-5.6-12.3-8.1-18.6c-2.5-6.4-5.7-12.4-7.6-19.1c-1.8-6.1-5.4-11.7-8.3-17.5C584.6,43.9,584.3,42.1,582.2,41.1z"/>
	<path class="st0" d="M51.4,220.8c0.8-10.3,1.5-21.6,2.5-32.9c0.4-4.6-1.5-8.8-1.4-13.2c0.2-23.2,0.1-46.5,0.6-69.7
		c0.4-18.3,0.3-36.5-0.1-54.7c-0.1-6.4-0.7-12.9-1-19.3c-0.3-5.6,4.7-5.2,7.6-7.2c2.3-1.7,4.4-0.9,6.5,1.2
		C72.3,31,79.4,36.4,85,43.1c11.4,13.5,25.9,23.4,38.2,35.8c3.1,3.1,2.7,14-1,17.3c-10.4,9.2-19.4,19.7-28.9,29.8
		c-8.7,9.3-16,19.9-24.8,29.1c-3,3.1-4.5,7.6-4.3,12.3c0.2,6,0.8,12,0.5,18c-0.8,13.8,1.7,27.4,1.8,41.1c0,2.1-0.7,2.8-2.6,2.9
		c-1.8,0.1-3.7,0.1-5.5,0.1C51.1,229.1,51.1,229,51.4,220.8z M65.6,140.7c0.7-0.5,1.1-0.7,1.4-1c16.3-15,30.3-32.2,44.9-48.9
		c2.1-2.4,1.5-4.3-0.6-6.3c-8.6-7.9-16.2-16.8-25.3-24.2c-6.3-5.1-11.8-11.2-17.7-16.9c-0.6-0.6-1.1-1.6-2.2-1.1
		c-0.8,0.4-0.7,1.3-0.7,2c-0.6,12-1.7,23.9-1.6,35.9c0.2,18.4,1.2,36.8,0.7,55.3C64.3,137.3,64.4,138.9,65.6,140.7z"/>
</g>
</svg>
